<svg width="800" height="600" viewBox="0 0 800 600" xmlns="http://www.w3.org/2000/svg">
  <!-- Background gradient -->
  <defs>
    <linearGradient id="skyGradient" x1="0%" y1="0%" x2="0%" y2="100%">
      <stop offset="0%" style="stop-color:#1a0b2e;stop-opacity:1" />
      <stop offset="50%" style="stop-color:#341c5c;stop-opacity:1" />
      <stop offset="100%" style="stop-color:#5a3a8a;stop-opacity:1" />
    </linearGradient>
  </defs>
  
  <!-- Sky background -->
  <rect width="800" height="600" fill="url(#skyGradient)" />
  
  <!-- Stars (small pixels) -->
  <rect x="100" y="50" width="4" height="4" fill="#ffffff" />
  <rect x="200" y="80" width="4" height="4" fill="#ffffff" />
  <rect x="300" y="30" width="4" height="4" fill="#ffffff" />
  <rect x="400" y="70" width="4" height="4" fill="#ffffff" />
  <rect x="500" y="40" width="4" height="4" fill="#ffffff" />
  <rect x="600" y="90" width="4" height="4" fill="#ffffff" />
  <rect x="700" y="60" width="4" height="4" fill="#ffffff" />
  <rect x="150" y="120" width="4" height="4" fill="#ffffff" />
  <rect x="250" y="150" width="4" height="4" fill="#ffffff" />
  <rect x="350" y="100" width="4" height="4" fill="#ffffff" />
  <rect x="450" y="140" width="4" height="4" fill="#ffffff" />
  <rect x="550" y="110" width="4" height="4" fill="#ffffff" />
  <rect x="650" y="160" width="4" height="4" fill="#ffffff" />
  <rect x="750" y="130" width="4" height="4" fill="#ffffff" />
  
  <!-- Moon (pixel art style) -->
  <rect x="650" y="80" width="60" height="60" fill="#f0f0ff" />
  <rect x="640" y="90" width="10" height="40" fill="#f0f0ff" />
  <rect x="710" y="90" width="10" height="40" fill="#f0f0ff" />
  <rect x="650" y="70" width="40" height="10" fill="#f0f0ff" />
  <rect x="650" y="140" width="40" height="10" fill="#f0f0ff" />
  
  <!-- Distant mountains (pixel art style) -->
  <polygon points="0,400 100,300 200,350 300,250 400,320 500,280 600,350 700,270 800,320 800,600 0,600" fill="#2a1052" />
  <polygon points="0,450 150,380 250,420 350,370 450,410 550,360 650,400 750,350 800,380 800,600 0,600" fill="#1f0b3f" />
</svg>