<svg width="64" height="64" viewBox="0 0 64 64" xmlns="http://www.w3.org/2000/svg">
  <!-- Background -->
  <rect width="64" height="64" fill="none" />
  
  <!-- Code brackets in pixel art style -->
  <g fill="#9d4edd">
    <!-- Left bracket -->
    <rect x="12" y="12" width="8" height="8" />
    <rect x="12" y="20" width="8" height="8" />
    <rect x="12" y="28" width="8" height="8" />
    <rect x="12" y="36" width="8" height="8" />
    <rect x="12" y="44" width="8" height="8" />
    <rect x="20" y="12" width="8" height="8" />
    <rect x="20" y="44" width="8" height="8" />
    
    <!-- Right bracket -->
    <rect x="44" y="12" width="8" height="8" />
    <rect x="44" y="20" width="8" height="8" />
    <rect x="44" y="28" width="8" height="8" />
    <rect x="44" y="36" width="8" height="8" />
    <rect x="44" y="44" width="8" height="8" />
    <rect x="36" y="12" width="8" height="8" />
    <rect x="36" y="44" width="8" height="8" />
  </g>
</svg>